<mxfile host="app.diagrams.net" modified="2023-09-25T08:25:20.067Z" agent="Mozilla/5.0 (Windows NT 10.0; Win64; x64) AppleWebKit/537.36 (KHTML, like Gecko) Chrome/117.0.0.0 Safari/537.36" etag="DztPDpfKWwusOu4XgvF6" version="21.8.2" type="device">
  <diagram name="ページ1" id="qHglHJxBbsX9JcOFXM8-">
    <mxGraphModel dx="1434" dy="750" grid="1" gridSize="10" guides="1" tooltips="1" connect="1" arrows="1" fold="1" page="1" pageScale="1" pageWidth="1169" pageHeight="827" math="0" shadow="0">
      <root>
        <mxCell id="0" />
        <mxCell id="1" parent="0" />
        <mxCell id="NyXOCGWVwqq4YiApX08w-9" value="Attendance" style="swimlane;whiteSpace=wrap;html=1;startSize=30;" vertex="1" parent="1">
          <mxGeometry x="80" y="240" width="200" height="420" as="geometry" />
        </mxCell>
        <mxCell id="NyXOCGWVwqq4YiApX08w-10" value="createDate: Date()" style="text;strokeColor=none;fillColor=none;align=left;verticalAlign=middle;spacingLeft=4;spacingRight=4;overflow=hidden;points=[[0,0.5],[1,0.5]];portConstraint=eastwest;rotatable=0;whiteSpace=wrap;html=1;" vertex="1" parent="NyXOCGWVwqq4YiApX08w-9">
          <mxGeometry x="10" y="30" width="190" height="30" as="geometry" />
        </mxCell>
        <mxCell id="NyXOCGWVwqq4YiApX08w-12" value="clock-in: Date()" style="text;strokeColor=none;fillColor=none;align=left;verticalAlign=middle;spacingLeft=4;spacingRight=4;overflow=hidden;points=[[0,0.5],[1,0.5]];portConstraint=eastwest;rotatable=0;whiteSpace=wrap;html=1;" vertex="1" parent="NyXOCGWVwqq4YiApX08w-9">
          <mxGeometry x="10" y="60" width="190" height="30" as="geometry" />
        </mxCell>
        <mxCell id="NyXOCGWVwqq4YiApX08w-13" value="clock-out: Date()" style="text;strokeColor=none;fillColor=none;align=left;verticalAlign=middle;spacingLeft=4;spacingRight=4;overflow=hidden;points=[[0,0.5],[1,0.5]];portConstraint=eastwest;rotatable=0;whiteSpace=wrap;html=1;" vertex="1" parent="NyXOCGWVwqq4YiApX08w-9">
          <mxGeometry x="10" y="90" width="190" height="30" as="geometry" />
        </mxCell>
        <mxCell id="NyXOCGWVwqq4YiApX08w-14" value="type: String" style="text;strokeColor=none;fillColor=none;align=left;verticalAlign=middle;spacingLeft=4;spacingRight=4;overflow=hidden;points=[[0,0.5],[1,0.5]];portConstraint=eastwest;rotatable=0;whiteSpace=wrap;html=1;" vertex="1" parent="NyXOCGWVwqq4YiApX08w-9">
          <mxGeometry x="10" y="120" width="190" height="30" as="geometry" />
        </mxCell>
        <mxCell id="NyXOCGWVwqq4YiApX08w-15" value="overwork: Number" style="text;strokeColor=none;fillColor=none;align=left;verticalAlign=middle;spacingLeft=4;spacingRight=4;overflow=hidden;points=[[0,0.5],[1,0.5]];portConstraint=eastwest;rotatable=0;whiteSpace=wrap;html=1;" vertex="1" parent="NyXOCGWVwqq4YiApX08w-9">
          <mxGeometry x="10" y="150" width="190" height="30" as="geometry" />
        </mxCell>
        <mxCell id="NyXOCGWVwqq4YiApX08w-27" value="name: String" style="text;strokeColor=none;fillColor=none;align=left;verticalAlign=middle;spacingLeft=4;spacingRight=4;overflow=hidden;points=[[0,0.5],[1,0.5]];portConstraint=eastwest;rotatable=0;whiteSpace=wrap;html=1;" vertex="1" parent="NyXOCGWVwqq4YiApX08w-9">
          <mxGeometry x="10" y="180" width="190" height="30" as="geometry" />
        </mxCell>
        <mxCell id="NyXOCGWVwqq4YiApX08w-28" value="id: String" style="text;strokeColor=none;fillColor=none;align=left;verticalAlign=middle;spacingLeft=4;spacingRight=4;overflow=hidden;points=[[0,0.5],[1,0.5]];portConstraint=eastwest;rotatable=0;whiteSpace=wrap;html=1;" vertex="1" parent="NyXOCGWVwqq4YiApX08w-9">
          <mxGeometry x="10" y="210" width="190" height="30" as="geometry" />
        </mxCell>
        <mxCell id="NyXOCGWVwqq4YiApX08w-29" value="restTime: Number" style="text;strokeColor=none;fillColor=none;align=left;verticalAlign=middle;spacingLeft=4;spacingRight=4;overflow=hidden;points=[[0,0.5],[1,0.5]];portConstraint=eastwest;rotatable=0;whiteSpace=wrap;html=1;" vertex="1" parent="NyXOCGWVwqq4YiApX08w-9">
          <mxGeometry x="10" y="240" width="190" height="30" as="geometry" />
        </mxCell>
        <mxCell id="NyXOCGWVwqq4YiApX08w-30" value="midnight: {&lt;br&gt;&lt;span style=&quot;white-space: pre;&quot;&gt;&#x9;&lt;/span&gt;night: Number&lt;br&gt;&lt;span style=&quot;white-space: pre;&quot;&gt;&#x9;&lt;/span&gt;morning: Number&lt;br&gt;}" style="text;strokeColor=none;fillColor=none;align=left;verticalAlign=middle;spacingLeft=4;spacingRight=4;overflow=hidden;points=[[0,0.5],[1,0.5]];portConstraint=eastwest;rotatable=0;whiteSpace=wrap;html=1;" vertex="1" parent="NyXOCGWVwqq4YiApX08w-9">
          <mxGeometry x="10" y="270" width="190" height="60" as="geometry" />
        </mxCell>
        <mxCell id="NyXOCGWVwqq4YiApX08w-36" value="valid: boolean" style="text;strokeColor=none;fillColor=none;align=left;verticalAlign=middle;spacingLeft=4;spacingRight=4;overflow=hidden;points=[[0,0.5],[1,0.5]];portConstraint=eastwest;rotatable=0;whiteSpace=wrap;html=1;" vertex="1" parent="NyXOCGWVwqq4YiApX08w-9">
          <mxGeometry x="10" y="330" width="190" height="30" as="geometry" />
        </mxCell>
        <mxCell id="NyXOCGWVwqq4YiApX08w-31" value="All Attendance" style="swimlane;whiteSpace=wrap;html=1;startSize=30;" vertex="1" parent="1">
          <mxGeometry x="440" y="240" width="200" height="200" as="geometry" />
        </mxCell>
        <mxCell id="NyXOCGWVwqq4YiApX08w-32" value="Attendance 9/1" style="text;strokeColor=none;fillColor=none;align=left;verticalAlign=middle;spacingLeft=4;spacingRight=4;overflow=hidden;points=[[0,0.5],[1,0.5]];portConstraint=eastwest;rotatable=0;whiteSpace=wrap;html=1;" vertex="1" parent="NyXOCGWVwqq4YiApX08w-31">
          <mxGeometry x="7.5" y="30" width="200" height="30" as="geometry" />
        </mxCell>
        <mxCell id="NyXOCGWVwqq4YiApX08w-35" value="Attendance 9/2" style="text;strokeColor=none;fillColor=none;align=left;verticalAlign=middle;spacingLeft=4;spacingRight=4;overflow=hidden;points=[[0,0.5],[1,0.5]];portConstraint=eastwest;rotatable=0;whiteSpace=wrap;html=1;" vertex="1" parent="NyXOCGWVwqq4YiApX08w-31">
          <mxGeometry x="7.5" y="60" width="200" height="30" as="geometry" />
        </mxCell>
        <mxCell id="NyXOCGWVwqq4YiApX08w-37" value="Attendance 9/3" style="text;strokeColor=none;fillColor=none;align=left;verticalAlign=middle;spacingLeft=4;spacingRight=4;overflow=hidden;points=[[0,0.5],[1,0.5]];portConstraint=eastwest;rotatable=0;whiteSpace=wrap;html=1;" vertex="1" parent="NyXOCGWVwqq4YiApX08w-31">
          <mxGeometry x="7.5" y="90" width="200" height="30" as="geometry" />
        </mxCell>
        <mxCell id="NyXOCGWVwqq4YiApX08w-38" value="" style="endArrow=classic;html=1;rounded=0;edgeStyle=orthogonalEdgeStyle;curved=1;" edge="1" parent="1" source="NyXOCGWVwqq4YiApX08w-32" target="NyXOCGWVwqq4YiApX08w-9">
          <mxGeometry width="50" height="50" relative="1" as="geometry">
            <mxPoint x="430" y="490" as="sourcePoint" />
            <mxPoint x="480" y="440" as="targetPoint" />
          </mxGeometry>
        </mxCell>
      </root>
    </mxGraphModel>
  </diagram>
</mxfile>
